<svg width="291" height="228" viewBox="0 0 291 228" fill="none" xmlns="http://www.w3.org/2000/svg">
<path d="M264.886 208.14C259.308 214.1 252.916 219.247 245.899 223.427C245.738 223.526 245.574 223.619 245.41 223.714L234.05 213.681C234.169 213.57 234.301 213.446 234.443 213.309C242.908 205.289 284.929 149.208 287.729 135.552C287.536 136.69 290.256 181.306 264.886 208.14Z" fill="#F0F0F0"/>
<path d="M248.091 225.363C247.876 225.414 247.657 225.462 247.438 225.506L238.915 217.978C239.082 217.92 239.277 217.851 239.499 217.775C243.156 216.483 254.047 212.582 264.885 208.139C276.531 203.363 288.121 197.967 290.614 194.511C290.079 195.314 273.608 219.669 248.091 225.363Z" fill="#F0F0F0"/>
<path d="M264.729 59.7125H263.515V26.5324C263.515 24.0106 263.017 21.5134 262.05 19.1835C261.083 16.8536 259.666 14.7366 257.879 12.9533C256.092 11.1701 253.97 9.75555 251.636 8.79047C249.301 7.82539 246.799 7.32867 244.271 7.32867H173.83C171.303 7.32867 168.8 7.82538 166.466 8.79045C164.131 9.75553 162.009 11.1701 160.223 12.9533C158.436 14.7365 157.018 16.8535 156.051 19.1834C155.084 21.5133 154.586 24.0105 154.586 26.5324V208.561C154.586 211.083 155.084 213.58 156.051 215.91C157.018 218.24 158.436 220.357 160.222 222.14C162.009 223.923 164.131 225.338 166.465 226.303C168.8 227.268 171.303 227.765 173.83 227.765H244.271C246.798 227.765 249.301 227.268 251.636 226.303C253.97 225.338 256.092 223.923 257.879 222.14C259.665 220.357 261.083 218.24 262.05 215.91C263.017 213.58 263.515 211.083 263.515 208.561V83.3307H264.729V59.7125Z" fill="#3F3D56"/>
<path d="M259.419 26.6644V208.428C259.419 210.311 259.047 212.176 258.324 213.916C257.602 215.656 256.543 217.237 255.209 218.569C253.874 219.9 252.289 220.956 250.546 221.676C248.802 222.397 246.933 222.767 245.046 222.766H174.265C172.378 222.766 170.509 222.396 168.766 221.675C167.023 220.955 165.439 219.899 164.105 218.567C162.771 217.236 161.712 215.655 160.99 213.915C160.268 212.176 159.897 210.311 159.897 208.428V26.6644C159.897 24.7814 160.268 22.9168 160.99 21.1772C161.712 19.4375 162.771 17.8568 164.105 16.5254C165.439 15.1939 167.023 14.1378 168.766 13.4173C170.509 12.6968 172.378 12.326 174.265 12.3262H182.854C182.433 13.3608 182.272 14.4829 182.387 15.5939C182.502 16.7049 182.889 17.7707 183.513 18.6976C184.138 19.6244 184.981 20.384 185.968 20.9094C186.956 21.4348 188.058 21.7099 189.177 21.7107H229.531C230.651 21.7118 231.754 21.4377 232.743 20.9128C233.731 20.3879 234.575 19.6283 235.2 18.7009C235.825 17.7735 236.212 16.7068 236.326 15.5951C236.44 14.4834 236.278 13.3607 235.854 12.3262H245.046C246.933 12.3255 248.802 12.6958 250.546 13.4161C252.289 14.1364 253.874 15.1924 255.209 16.5239C256.543 17.8554 257.602 19.4362 258.324 21.1762C259.047 22.9161 259.419 24.781 259.419 26.6644V26.6644Z" fill="white"/>
<path d="M237.401 121.119H175.187C174.097 121.117 173.052 120.685 172.282 119.916C171.511 119.147 171.078 118.104 171.077 117.017V114.975C171.078 113.888 171.511 112.845 172.282 112.076C173.052 111.307 174.097 110.875 175.187 110.874H237.401C238.491 110.875 239.536 111.307 240.306 112.076C241.077 112.845 241.51 113.888 241.511 114.975V117.017C241.51 118.104 241.077 119.147 240.306 119.916C239.536 120.685 238.491 121.117 237.401 121.119Z" fill="#F0F0F0"/>
<path d="M237.401 138.718H175.187C174.097 138.717 173.052 138.284 172.282 137.515C171.511 136.746 171.078 135.704 171.077 134.616V132.574C171.078 131.487 171.511 130.444 172.282 129.675C173.052 128.907 174.097 128.474 175.187 128.473H237.401C238.491 128.474 239.536 128.907 240.306 129.675C241.077 130.444 241.51 131.487 241.511 132.574V134.616C241.51 135.704 241.077 136.746 240.306 137.515C239.536 138.284 238.491 138.717 237.401 138.718V138.718Z" fill="#F0F0F0"/>
<path d="M240.513 117.182H178.299C177.155 117.181 176.058 116.727 175.249 115.92C174.44 115.112 173.985 114.018 173.983 112.876V110.834C173.985 109.692 174.44 108.598 175.249 107.79C176.058 106.983 177.155 106.529 178.299 106.527H240.513C241.657 106.529 242.754 106.983 243.563 107.79C244.373 108.598 244.828 109.692 244.829 110.834V112.876C244.828 114.018 244.373 115.112 243.563 115.92C242.754 116.727 241.657 117.181 240.513 117.182V117.182ZM178.299 107.348C177.373 107.349 176.485 107.716 175.83 108.37C175.175 109.024 174.806 109.91 174.805 110.834V112.876C174.806 113.8 175.175 114.686 175.83 115.34C176.485 115.993 177.373 116.361 178.299 116.362H240.513C241.44 116.361 242.328 115.993 242.983 115.34C243.637 114.686 244.006 113.8 244.007 112.876V110.834C244.006 109.91 243.637 109.024 242.983 108.37C242.328 107.716 241.44 107.349 240.513 107.348H178.299Z" fill="#3F3D56"/>
<path d="M240.513 134.782H178.299C177.155 134.78 176.058 134.326 175.249 133.519C174.44 132.711 173.985 131.617 173.983 130.475V128.433C173.985 127.291 174.44 126.197 175.249 125.389C176.058 124.582 177.155 124.128 178.299 124.127H240.513C241.657 124.128 242.754 124.582 243.563 125.389C244.373 126.197 244.828 127.291 244.829 128.433V130.475C244.828 131.617 244.373 132.711 243.563 133.519C242.754 134.326 241.657 134.78 240.513 134.782V134.782ZM178.299 124.947C177.373 124.948 176.485 125.316 175.83 125.969C175.175 126.623 174.806 127.509 174.805 128.433V130.475C174.806 131.399 175.175 132.285 175.83 132.939C176.485 133.593 177.373 133.96 178.299 133.961H240.513C241.44 133.96 242.328 133.593 242.983 132.939C243.637 132.285 244.006 131.399 244.007 130.475V128.433C244.006 127.509 243.637 126.623 242.983 125.969C242.328 125.316 241.44 124.948 240.513 124.947H178.299Z" fill="#3F3D56"/>
<path d="M259.419 26.6644V66.2005C253.123 67.8533 246.532 68.0429 240.152 66.7548C233.772 65.4667 227.773 62.7352 222.617 58.7705C217.461 54.8057 213.285 49.7135 210.41 43.8854C207.535 38.0573 206.038 31.6488 206.035 25.1529C206.035 23.9934 206.081 22.846 206.175 21.7107H229.531C230.651 21.7118 231.754 21.4377 232.743 20.9128C233.731 20.3879 234.575 19.6283 235.2 18.7009C235.825 17.7735 236.212 16.7068 236.326 15.5951C236.44 14.4834 236.278 13.3607 235.854 12.3262H245.046C246.933 12.3255 248.802 12.6958 250.545 13.4161C252.289 14.1364 253.874 15.1924 255.209 16.5239C256.543 17.8554 257.602 19.4362 258.324 21.1762C259.047 22.9161 259.419 24.781 259.419 26.6644V26.6644Z" fill="#F0F0F0"/>
<path d="M195.661 220.297C195.661 221.131 195.63 221.954 195.562 222.766H174.265C172.378 222.766 170.509 222.396 168.766 221.675C167.023 220.955 165.439 219.899 164.105 218.567C162.771 217.236 161.712 215.655 160.99 213.915C160.268 212.176 159.897 210.311 159.897 208.428V188.986C164.361 188.407 168.898 188.784 173.205 190.091C177.512 191.399 181.49 193.608 184.874 196.571C188.258 199.534 190.97 203.182 192.83 207.274C194.69 211.365 195.655 215.805 195.661 220.297H195.661Z" fill="#1660D9"/>
<path d="M23.8889 186.184C24.4873 186.446 25.1657 186.461 25.7753 186.226C26.3848 185.99 26.8758 185.522 27.1404 184.926L46.3264 141.532C46.7655 140.539 46.8997 139.439 46.712 138.369C46.5242 137.3 46.023 136.311 45.2716 135.526C44.5203 134.741 43.5526 134.196 42.491 133.96C41.4293 133.724 40.3214 133.808 39.3073 134.2H39.3072C38.1356 134.647 37.1552 135.484 36.5328 136.571C36.4338 136.743 36.344 136.92 36.2639 137.101L17.0779 180.495C16.9471 180.791 16.876 181.109 16.8686 181.432C16.8612 181.755 16.9176 182.077 17.0347 182.378C17.1518 182.679 17.3272 182.955 17.5509 183.188C17.7746 183.422 18.0423 183.609 18.3386 183.74L23.8889 186.184Z" fill="#1660D9"/>
<path d="M45.5387 159.347L26.5614 155.139L31.2585 142.738C32.0586 139.708 33.9208 137.063 36.5073 135.285C39.0937 133.507 42.2331 132.713 45.3559 133.047L45.5388 133.067L45.5387 159.347Z" fill="#2F2E41"/>
<path d="M83.8701 186.804C83.3119 186.803 82.766 186.641 82.2983 186.337C81.8306 186.033 81.4611 185.6 81.2347 185.091L62.0488 141.698C61.4386 140.317 61.3819 138.756 61.8903 137.334C62.3986 135.913 63.4335 134.741 64.7819 134.058C66.1303 133.375 67.6896 133.234 69.1392 133.663C70.5887 134.093 71.8182 135.06 72.5747 136.367V136.367C72.681 136.551 72.7774 136.741 72.8635 136.936L92.0494 180.329C92.3574 181.026 92.3755 181.816 92.0996 182.526C91.8238 183.236 91.2766 183.808 90.5785 184.115L84.8401 186.642L84.8372 186.635C84.527 186.747 84.1998 186.804 83.8701 186.804V186.804Z" fill="#1660D9"/>
<path d="M57.3309 171.903C56.6771 171.904 56.0502 172.164 55.5879 172.625C55.1256 173.086 54.8655 173.712 54.8648 174.364V224.821C54.8655 225.473 55.1256 226.099 55.5879 226.56C56.0502 227.022 56.6771 227.281 57.3309 227.282H63.3973C64.0511 227.281 64.678 227.022 65.1403 226.56C65.6026 226.099 65.8627 225.473 65.8634 224.821V174.364C65.8627 173.712 65.6026 173.086 65.1403 172.625C64.678 172.164 64.0511 171.904 63.3973 171.903H57.3309Z" fill="#1660D9"/>
<path d="M45.3323 171.903C44.6785 171.904 44.0517 172.164 43.5893 172.625C43.127 173.086 42.867 173.712 42.8662 174.364V224.821C42.867 225.473 43.127 226.099 43.5893 226.56C44.0517 227.022 44.6785 227.281 45.3323 227.282H51.3988C52.0527 227.281 52.6795 227.022 53.1418 226.56C53.6042 226.099 53.8642 225.473 53.8649 224.821V174.364C53.8642 173.712 53.6042 173.086 53.1418 172.625C52.6795 172.164 52.0527 171.904 51.3988 171.903H45.3323Z" fill="#1660D9"/>
<path d="M54.1836 119.041C65.7605 119.041 75.1455 109.676 75.1455 98.1225C75.1455 86.5694 65.7605 77.2038 54.1836 77.2038C42.6067 77.2038 33.2217 86.5694 33.2217 98.1225C33.2217 109.676 42.6067 119.041 54.1836 119.041Z" fill="#1660D9"/>
<path d="M61.1593 106.904C62.5181 106.866 64.2092 106.819 65.512 105.869C65.8999 105.575 66.2187 105.199 66.4459 104.769C66.6731 104.339 66.8032 103.864 66.8273 103.378C66.8508 103.033 66.7941 102.687 66.6614 102.368C66.5288 102.048 66.3238 101.763 66.0626 101.535C65.3822 100.962 64.3886 100.827 63.3178 101.141L64.4272 93.0503L63.6128 92.939L62.3085 102.451L62.9886 102.139C63.7771 101.778 64.8594 101.595 65.532 102.162C65.6972 102.31 65.8258 102.495 65.908 102.701C65.9902 102.907 66.0236 103.129 66.0058 103.35C65.9858 103.711 65.8881 104.064 65.7192 104.385C65.5503 104.705 65.3143 104.986 65.0271 105.207C64.0132 105.946 62.6653 106.041 61.1364 106.084L61.1593 106.904Z" fill="#2F2E41"/>
<path d="M72.8821 93.7481H68.4548V94.5684H72.8821V93.7481Z" fill="#2F2E41"/>
<path d="M58.9075 93.7481H54.4802V94.5684H58.9075V93.7481Z" fill="#2F2E41"/>
<path d="M74.9538 187.059L67.4091 132.096C67.3282 131.507 67.0361 130.967 66.5869 130.576C66.1377 130.185 65.5618 129.969 64.9657 129.969H59.2709C59.2946 129.834 59.307 129.697 59.3078 129.559V127.508C59.3078 126.856 59.048 126.23 58.5855 125.768C58.123 125.307 57.4958 125.047 56.8417 125.047H51.9095C51.2555 125.047 50.6282 125.307 50.1657 125.768C49.7032 126.23 49.4434 126.856 49.4434 127.508V129.559C49.4443 129.697 49.4566 129.834 49.4803 129.969H43.7855C43.1894 129.969 42.6135 130.185 42.1643 130.576C41.7151 130.967 41.423 131.507 41.3421 132.096L33.7974 187.059C33.7497 187.407 33.7771 187.762 33.878 188.098C33.9789 188.435 34.1509 188.746 34.3823 189.011C34.6138 189.276 34.8994 189.488 35.22 189.634C35.5405 189.779 35.8885 189.854 36.2407 189.854H72.5105C72.8626 189.854 73.2107 189.779 73.5312 189.634C73.8518 189.488 74.1374 189.276 74.3689 189.011C74.6003 188.746 74.7723 188.435 74.8732 188.098C74.9741 187.762 75.0015 187.407 74.9538 187.059V187.059Z" fill="#2F2E41"/>
<path d="M63.2125 159.347V133.067L63.3953 133.047C66.522 132.713 69.6648 133.51 72.2529 135.292C74.841 137.075 76.7026 139.724 77.4995 142.76L82.1898 155.139L63.2125 159.347Z" fill="#2F2E41"/>
<path d="M53.128 119.694L38.6292 114.078C36.2583 113.16 33.8742 112.269 31.5159 111.319C30.5057 110.968 29.5752 110.421 28.7779 109.709C28.0838 108.976 27.6107 108.062 27.4129 107.073C26.91 104.952 27.001 102.633 27.0368 100.468C27.0646 98.0999 27.2599 95.7369 27.6212 93.3963C28.2543 88.998 29.7413 84.7653 31.9986 80.9352C36.0647 74.2775 43.0703 69.2685 51.1285 69.6682C54.8592 69.8533 58.6113 71.1892 61.3832 73.7347C61.6723 74.0795 61.9967 74.3933 62.3511 74.6709C62.5975 74.7631 62.8656 74.781 63.1221 74.7225C63.4603 74.7008 63.7988 74.6842 64.1376 74.6728C65.3132 74.6233 66.4909 74.6726 67.6582 74.8202C69.7855 75.0495 71.8016 75.8849 73.466 77.2268C74.8512 78.4159 75.9783 80.0945 76.0943 81.9601C76.1503 82.8164 76.0084 83.6742 75.6795 84.4672C75.3507 85.2602 74.8437 85.9672 74.1977 86.5337C72.4679 87.9885 70 87.4772 67.925 87.3675L60.3238 86.9656L56.4725 86.762C55.6795 86.7201 55.6818 87.9507 56.4725 87.9925L66.7088 88.5337C68.3538 88.6206 70.0492 88.8338 71.6955 88.7354C72.9604 88.6782 74.1683 88.1933 75.1205 87.3603C75.9902 86.5631 76.638 85.5545 77.0008 84.4331C77.3636 83.3116 77.429 82.1154 77.1907 80.9612C76.6629 78.4438 74.7855 76.3613 72.5846 75.1224C69.5898 73.4367 66.0132 73.2752 62.6623 73.5244L63.0982 73.7046C59.3078 69.6446 53.5016 67.9305 48.0508 68.5304C42.2956 69.1637 37.1769 72.3678 33.4991 76.7491C29.3986 81.634 27.1641 87.7251 26.2954 93.9885C25.8434 97.3702 25.6945 100.785 25.8507 104.193C25.8443 105.696 26.102 107.189 26.612 108.603C27.194 109.98 28.2463 111.105 29.5817 111.78C31.1127 112.518 32.6867 113.163 34.2952 113.713L39.6368 115.782L50.1294 119.846L52.8002 120.88C53.5404 121.167 53.8611 119.978 53.128 119.694Z" fill="#2F2E41"/>
<path d="M30.3311 77.8779C29.0711 77.8779 27.8394 77.505 26.7917 76.8064C25.744 76.1078 24.9275 75.1149 24.4453 73.9532C23.9631 72.7915 23.8369 71.5132 24.0828 70.2799C24.3286 69.0467 24.9353 67.9139 25.8263 67.0247C26.7173 66.1356 27.8524 65.5301 29.0882 65.2848C30.3241 65.0395 31.605 65.1654 32.7691 65.6466C33.9332 66.1278 34.9282 66.9426 35.6282 67.9881C36.3282 69.0336 36.7019 70.2628 36.7019 71.5202C36.7 73.2058 36.0282 74.8218 34.8338 76.0137C33.6395 77.2056 32.0202 77.876 30.3311 77.8779ZM30.3311 66.3931C29.315 66.3931 28.3216 66.6938 27.4768 67.2572C26.6319 67.8206 25.9734 68.6213 25.5845 69.5582C25.1956 70.495 25.0939 71.5259 25.2921 72.5205C25.4904 73.5151 25.9797 74.4286 26.6982 75.1457C27.4167 75.8627 28.3322 76.351 29.3288 76.5489C30.3254 76.7467 31.3584 76.6452 32.2972 76.2571C33.236 75.869 34.0384 75.2119 34.603 74.3687C35.1675 73.5256 35.4688 72.5343 35.4688 71.5202C35.4673 70.1609 34.9255 68.8577 33.9623 67.8965C32.9992 66.9353 31.6933 66.3947 30.3311 66.3931V66.3931Z" fill="#2F2E41"/>
<path d="M136.827 117.277L123.038 106.752L112.492 120.513L126.281 131.038L136.827 117.277Z" fill="#F0F0F0"/>
<path d="M58.8968 23.3253C61.0755 23.3236 63.2243 23.831 65.1712 24.807C67.1181 25.7829 68.8089 27.2003 70.1082 28.9455L78.16 18.4395L54.0009 0L35.5234 24.1094L45.9359 32.0568C46.9779 29.4778 48.7686 27.2686 51.0781 25.7127C53.3875 24.1569 56.1103 23.3255 58.8968 23.3253V23.3253Z" fill="#F0F0F0"/>
<path d="M290.589 228H0.411017C0.302008 228 0.197464 227.957 0.120384 227.88C0.0433031 227.803 0 227.699 0 227.59C0 227.481 0.0433031 227.377 0.120384 227.3C0.197464 227.223 0.302008 227.18 0.411017 227.18H290.589C290.698 227.18 290.803 227.223 290.88 227.3C290.957 227.377 291 227.481 291 227.59C291 227.699 290.957 227.803 290.88 227.88C290.803 227.957 290.698 228 290.589 228Z" fill="#3F3D56"/>
<path d="M219.766 159.94H190.229C189.139 159.939 188.095 159.506 187.324 158.738C186.554 157.969 186.12 156.926 186.119 155.839V153.797C186.12 152.709 186.554 151.667 187.324 150.898C188.095 150.129 189.139 149.696 190.229 149.695H219.766C220.855 149.696 221.9 150.129 222.671 150.898C223.441 151.667 223.875 152.709 223.876 153.797V155.839C223.875 156.926 223.441 157.969 222.671 158.738C221.9 159.506 220.855 159.939 219.766 159.94V159.94Z" fill="#1660D9"/>
<path d="M222.878 156.004H193.341C192.197 156.003 191.1 155.549 190.291 154.742C189.482 153.934 189.027 152.839 189.026 151.698V149.656C189.027 148.514 189.482 147.419 190.291 146.612C191.1 145.805 192.197 145.351 193.341 145.349H222.878C224.022 145.351 225.119 145.805 225.928 146.612C226.737 147.419 227.192 148.514 227.193 149.656V151.698C227.192 152.839 226.737 153.934 225.928 154.742C225.119 155.549 224.022 156.003 222.878 156.004V156.004ZM193.341 146.17C192.415 146.171 191.527 146.538 190.872 147.192C190.217 147.845 189.849 148.732 189.848 149.656V151.698C189.849 152.622 190.217 153.508 190.872 154.162C191.527 154.815 192.415 155.183 193.341 155.184H222.878C223.804 155.183 224.692 154.815 225.347 154.162C226.002 153.508 226.37 152.622 226.371 151.698V149.656C226.37 148.732 226.002 147.845 225.347 147.192C224.692 146.538 223.804 146.171 222.878 146.17H193.341Z" fill="#3F3D56"/>
</svg>
